
<svg xmlns="http://www.w3.org/2000/svg" id="youtube-logo" aria-label="Youtube" data-testid="youtube-logo" role="img" fill="none" viewBox="0 0 300 300" xml:space="preserve">
    <path d="M49.138 2h201.724C276.896 2 298 23.104 298 49.138v201.724C298 276.896 276.896 298 250.862 298H49.138C23.104 298 2 276.896 2 250.862V49.138C2 23.104 23.104 2 49.138 2z" fill="#fff" stroke="#CECECE" stroke-width="4"/>
    <path d="M149.938 79.223s-63.22 0-79.086 4.123c-8.496 2.374-15.492 9.37-17.866 17.99-4.123 15.867-4.123 48.727-4.123 48.727s0 32.984 4.123 48.601c2.374 8.621 9.245 15.491 17.866 17.865 15.992 4.248 79.086 4.248 79.086 4.248s63.344 0 79.21-4.123c8.621-2.373 15.492-9.119 17.741-17.865 4.248-15.742 4.248-48.601 4.248-48.601s.125-32.985-4.248-48.852c-2.249-8.62-9.12-15.491-17.741-17.74-15.866-4.373-79.21-4.373-79.21-4.373zm-20.116 40.48l52.6 30.36-52.6 30.234v-60.594z" fill="red"/>
</svg>
